<?xml version="1.0" encoding="UTF-8" standalone="no"?>
<!-- Created with Inkscape (http://www.inkscape.org/) -->

<svg
   xmlns:dc="http://purl.org/dc/elements/1.1/"
   xmlns:cc="http://creativecommons.org/ns#"
   xmlns:rdf="http://www.w3.org/1999/02/22-rdf-syntax-ns#"
   xmlns:svg="http://www.w3.org/2000/svg"
   xmlns="http://www.w3.org/2000/svg"
   xmlns:xlink="http://www.w3.org/1999/xlink"
   xmlns:sodipodi="http://sodipodi.sourceforge.net/DTD/sodipodi-0.dtd"
   xmlns:inkscape="http://www.inkscape.org/namespaces/inkscape"
   width="210mm"
   height="297mm"
   viewBox="0 0 744.09448819 1052.3622047"
   id="svg2"
   version="1.1"
   inkscape:version="0.91 r13725"
   sodipodi:docname="glitch.svg"
   inkscape:export-filename="C:\cygwin64\home\alinen\webGL\glitch\game\eatenBullet.png"
   inkscape:export-xdpi="89.992188"
   inkscape:export-ydpi="89.992188">
  <defs
     id="defs4">
    <pattern
       inkscape:collect="always"
       xlink:href="#pattern4269"
       id="pattern4956"
       patternTransform="matrix(0.80973616,0,0,0.80973616,-39.752985,303.13462)" />
    <pattern
       inkscape:collect="always"
       xlink:href="#pattern4269"
       id="pattern4933"
       patternTransform="matrix(0.80973616,0,0,0.80973616,-39.752985,303.13462)" />
    <pattern
       inkscape:collect="always"
       xlink:href="#pattern4269"
       id="pattern4990"
       patternTransform="translate(273.5625,325.92471)" />
    <linearGradient
       inkscape:collect="always"
       id="linearGradient4209">
      <stop
         style="stop-color:#00ff00;stop-opacity:1;"
         offset="0"
         id="stop4211" />
      <stop
         id="stop4217"
         offset="0.5"
         style="stop-color:#ff0000;stop-opacity:1" />
      <stop
         style="stop-color:#ffff00;stop-opacity:1"
         offset="1"
         id="stop4213" />
    </linearGradient>
    <inkscape:perspective
       sodipodi:type="inkscape:persp3d"
       inkscape:vp_x="198.68921 : 489.76566 : 1"
       inkscape:vp_y="-498.0638 : 867.14039 : 0"
       inkscape:vp_z="843.92359 : 860.37219 : 1"
       inkscape:persp3d-origin="608.66364 : 522.97796 : 1"
       id="perspective4812" />
    <filter
       inkscape:collect="always"
       style="color-interpolation-filters:sRGB"
       id="filter4778"
       x="-0.57715223"
       width="2.1543045"
       y="-0.56536929"
       height="2.1307386">
      <feGaussianBlur
         inkscape:collect="always"
         stdDeviation="16.099112"
         id="feGaussianBlur4780" />
    </filter>
    <linearGradient
       inkscape:collect="always"
       xlink:href="#linearGradient4209"
       id="linearGradient4215"
       x1="44.238281"
       y1="356.98788"
       x2="256.97266"
       y2="356.20663"
       gradientUnits="userSpaceOnUse"
       spreadMethod="pad" />
    <linearGradient
       inkscape:collect="always"
       xlink:href="#linearGradient4209"
       id="linearGradient4230"
       gradientUnits="userSpaceOnUse"
       spreadMethod="pad"
       x1="44.238281"
       y1="356.98788"
       x2="256.97266"
       y2="356.20663" />
    <linearGradient
       inkscape:collect="always"
       xlink:href="#linearGradient4209"
       id="linearGradient4232"
       gradientUnits="userSpaceOnUse"
       spreadMethod="pad"
       x1="44.238281"
       y1="356.98788"
       x2="256.97266"
       y2="356.20663" />
    <linearGradient
       inkscape:collect="always"
       xlink:href="#linearGradient4209"
       id="linearGradient4234"
       gradientUnits="userSpaceOnUse"
       spreadMethod="pad"
       x1="44.238281"
       y1="356.98788"
       x2="256.97266"
       y2="356.20663" />
    <pattern
       patternUnits="userSpaceOnUse"
       width="241.9375"
       height="223.96875"
       patternTransform="translate(-49.09375,374.36221)"
       id="pattern4269">
      <image
         width="241.9375"
         height="223.96875"
         preserveAspectRatio="none"
         xlink:href="file:///C:/cygwin64/home/alinen/webGL/glitch/notes/examples/canvas1.png"
         id="image4227"
         x="0"
         y="0"
         sodipodi:absref="C:\cygwin64\home\alinen\webGL\glitch\notes\examples\canvas1.png" />
    </pattern>
  </defs>
  <sodipodi:namedview
     id="base"
     pagecolor="#ffffff"
     bordercolor="#666666"
     borderopacity="1.0"
     inkscape:pageopacity="0.0"
     inkscape:pageshadow="2"
     inkscape:zoom="0.6"
     inkscape:cx="628.40347"
     inkscape:cy="788.72504"
     inkscape:document-units="px"
     inkscape:current-layer="layer1"
     showgrid="false"
     inkscape:window-width="1290"
     inkscape:window-height="734"
     inkscape:window-x="101"
     inkscape:window-y="56"
     inkscape:window-maximized="0" />
  <metadata
     id="metadata7">
    <rdf:RDF>
      <cc:Work
         rdf:about="">
        <dc:format>image/svg+xml</dc:format>
        <dc:type
           rdf:resource="http://purl.org/dc/dcmitype/StillImage" />
        <dc:title />
      </cc:Work>
    </rdf:RDF>
  </metadata>
  <g
     inkscape:label="Layer 1"
     inkscape:groupmode="layer"
     id="layer1">
    <g
       id="g4808"
       transform="matrix(2.0523726,0,0,2.0523726,205.40974,-65.423812)"
       inkscape:export-xdpi="96.260178"
       inkscape:export-ydpi="96.260178">
      <ellipse
         ry="34.170471"
         rx="33.472858"
         cy="263.01669"
         cx="237.32877"
         id="ellipse4799"
         style="fill:#ffffff;fill-opacity:1;stroke:none;stroke-width:1.99999988;stroke-linecap:round;stroke-miterlimit:4;stroke-dasharray:none;stroke-dashoffset:0;stroke-opacity:1;filter:url(#filter4778)"
         transform="matrix(0.47356375,0,0,0.41092703,-66.746047,-45.558364)"
         inkscape:export-xdpi="96.260178"
         inkscape:export-ydpi="96.260178" />
      <path
         transform="matrix(-0.28767621,-0.38742084,0.43380114,-0.25641617,27.752756,111.33254)"
         d="m 88.571424,49.505062 -9.1368,30.433807 31.303456,5.458127 L 79.813233,92.701198 90.738085,122.53985 68.950035,99.410248 48.571429,123.79078 57.708229,93.356969 26.40477,87.898841 57.32962,80.594639 46.404768,50.755984 68.192817,73.885589 Z"
         inkscape:randomized="0"
         inkscape:rounded="0"
         inkscape:flatsided="false"
         sodipodi:arg2="-0.55325622"
         sodipodi:arg1="-1.076855"
         sodipodi:r2="12.767944"
         sodipodi:r1="42.185207"
         sodipodi:cy="86.647919"
         sodipodi:cx="68.571426"
         sodipodi:sides="6"
         id="path4136"
         style="fill:#ffff00;fill-opacity:1;stroke:#000000;stroke-width:2.03350997;stroke-linecap:round;stroke-linejoin:round;stroke-miterlimit:4;stroke-dasharray:none;stroke-dashoffset:0;stroke-opacity:1"
         sodipodi:type="star" />
    </g>
    <g
       id="g4168"
       transform="matrix(0.99995757,0,0,1.0073355,-213.38585,231.05795)"
       inkscape:export-xdpi="89.992188"
       inkscape:export-ydpi="89.992188">
      <path
         sodipodi:nodetypes="csszssc"
         inkscape:connector-curvature="0"
         id="path4160"
         d="m 251.94175,119.19068 c 0,0 -3.51942,5.11104 -6.4725,5.50162 -3.18056,0.42066 -6.48801,-1.59633 -8.73786,-3.88349 -1.89463,-1.92605 -1.75819,-12.92294 -3.55987,-7.28156 -1.80168,5.64138 -1.04166,10.61616 2.10356,14.23949 3.61355,4.16286 10.48346,5.91959 15.85761,4.69255 6.1052,-1.39396 13.91585,-12.62136 13.91585,-12.62136"
         style="fill:#008000;fill-rule:evenodd;stroke:#000000;stroke-width:1px;stroke-linecap:butt;stroke-linejoin:miter;stroke-opacity:1" />
      <path
         style="fill:#008000;fill-rule:evenodd;stroke:#000000;stroke-width:1px;stroke-linecap:butt;stroke-linejoin:miter;stroke-opacity:1"
         d="m 263.94712,119.23073 c 0,0 1.79387,5.94063 0.25468,8.49095 -1.65776,2.74677 -5.29861,4.07029 -8.48998,4.39909 -2.68749,0.27689 -11.191,-6.69738 -7.91018,-1.76713 3.28082,4.93026 7.64083,7.44349 12.43494,7.24985 5.50796,-0.22246 11.17034,-4.49085 13.56824,-9.45444 2.72408,-5.63879 -1.16681,-18.75069 -1.16681,-18.75069"
         id="path4166"
         inkscape:connector-curvature="0"
         sodipodi:nodetypes="csszssc" />
      <path
         sodipodi:nodetypes="csszssc"
         inkscape:connector-curvature="0"
         id="path4164"
         d="m 285.08005,120.2016 c 0,0 -1.79387,5.94063 -0.25468,8.49095 1.65776,2.74677 5.29861,4.07029 8.48998,4.39909 2.68749,0.27689 11.191,-6.69738 7.91018,-1.76713 -3.28082,4.93026 -7.64083,7.44349 -12.43494,7.24985 -5.50796,-0.22246 -11.17034,-4.49085 -13.56824,-9.45444 -2.72408,-5.63879 1.16681,-18.75069 1.16681,-18.75069"
         style="fill:#008000;fill-rule:evenodd;stroke:#000000;stroke-width:1px;stroke-linecap:butt;stroke-linejoin:miter;stroke-opacity:1" />
      <path
         style="fill:#008000;fill-rule:evenodd;stroke:#000000;stroke-width:1px;stroke-linecap:butt;stroke-linejoin:miter;stroke-opacity:1"
         d="m 297.33952,118.21981 c 0,0 3.51942,5.11104 6.4725,5.50162 3.18056,0.42066 6.48801,-1.59633 8.73786,-3.88349 1.89463,-1.92605 1.75819,-12.92294 3.55987,-7.28156 1.80168,5.64138 1.04166,10.61616 -2.10356,14.23949 -3.61355,4.16286 -10.48346,5.91959 -15.85761,4.69255 -6.1052,-1.39396 -13.91585,-12.62136 -13.91585,-12.62136"
         id="path4162"
         inkscape:connector-curvature="0"
         sodipodi:nodetypes="csszssc" />
      <rect
         ry="8.7912102"
         rx="4.9450598"
         y="76.545212"
         x="247.05882"
         height="42.483662"
         width="54.901962"
         id="rect4146"
         style="fill:#008000;fill-opacity:1;stroke:#000000;stroke-width:2;stroke-linecap:round;stroke-miterlimit:4;stroke-dasharray:none;stroke-dashoffset:0;stroke-opacity:1" />
      <path
         transform="matrix(0.74668275,0.66518033,-0.66518033,0.74668275,0,0)"
         d="m 260.27086,-112.26115 a 6.5359478,6.5359478 0 0 1 -6.32312,6.53249 6.5359478,6.5359478 0 0 1 -6.73492,-6.10706 l 6.52209,-0.42543 z"
         sodipodi:end="3.0764562"
         sodipodi:start="0"
         sodipodi:ry="6.5359478"
         sodipodi:rx="6.5359478"
         sodipodi:cy="-112.26115"
         sodipodi:cx="253.73491"
         sodipodi:type="arc"
         id="path4148"
         style="fill:#ff0000;fill-opacity:1;stroke:#000000;stroke-width:2;stroke-linecap:round;stroke-miterlimit:4;stroke-dasharray:none;stroke-dashoffset:0;stroke-opacity:1" />
      <path
         style="fill:#ff0000;fill-opacity:1;stroke:#000000;stroke-width:2;stroke-linecap:round;stroke-miterlimit:4;stroke-dasharray:none;stroke-dashoffset:0;stroke-opacity:1"
         id="path4150"
         sodipodi:type="arc"
         sodipodi:cx="-155.42352"
         sodipodi:cy="252.23656"
         sodipodi:rx="6.5359478"
         sodipodi:ry="6.5359478"
         sodipodi:start="0"
         sodipodi:end="3.0764562"
         d="m -148.88758,252.23656 a 6.5359478,6.5359478 0 0 1 -6.32312,6.53248 6.5359478,6.5359478 0 0 1 -6.73491,-6.10706 l 6.52209,-0.42542 z"
         transform="matrix(-0.74668275,0.66518033,0.66518033,0.74668275,0,0)" />
      <rect
         ry="7.051281"
         rx="4.9450598"
         y="96.806648"
         x="253.41881"
         height="17.948723"
         width="41.025654"
         id="rect4152"
         style="fill:#ff0000;fill-opacity:1;stroke:#000000;stroke-width:2;stroke-linecap:round;stroke-miterlimit:4;stroke-dasharray:none;stroke-dashoffset:0;stroke-opacity:1" />
      <path
         sodipodi:nodetypes="ccccccc"
         inkscape:connector-curvature="0"
         id="path4156"
         d="m 257.95785,97.750325 3.46444,5.473725 7.64667,-5.473725 6.02855,5.473725 4.65521,-5.473725 4.31915,5.473725 5.50991,-5.473725"
         style="fill:#ffffff;fill-rule:evenodd;stroke:#000000;stroke-width:1px;stroke-linecap:butt;stroke-linejoin:miter;stroke-opacity:1" />
      <path
         style="fill:#ffffff;fill-rule:evenodd;stroke:#000000;stroke-width:1px;stroke-linecap:butt;stroke-linejoin:miter;stroke-opacity:1"
         d="m 257.95785,114.04247 3.46444,-5.02473 7.64667,5.02473 6.02855,-5.02473 4.65521,5.02473 4.31915,-5.02473 5.50991,5.02473"
         id="path4158"
         inkscape:connector-curvature="0"
         sodipodi:nodetypes="ccccccc" />
    </g>
    <g
       id="g4801"
       transform="matrix(2.0443237,0,0,2.0443237,-322.77443,-42.693068)"
       inkscape:export-xdpi="91.661858"
       inkscape:export-ydpi="91.661858">
      <g
         transform="matrix(0.71668754,0,0,0.70459043,-18.020874,-33.861462)"
         id="g4794">
        <circle
           style="fill:#ff00ff;fill-opacity:1;stroke:#ffffff;stroke-width:1.99999988;stroke-linecap:round;stroke-miterlimit:4;stroke-dasharray:none;stroke-dashoffset:0;stroke-opacity:1"
           id="path4138"
           cx="243.53169"
           cy="123.72141"
           r="31" />
        <path
           style="fill:#ffdcff;fill-opacity:1;stroke:none;stroke-width:2;stroke-linecap:round;stroke-miterlimit:4;stroke-dasharray:none;stroke-dashoffset:0;stroke-opacity:1"
           d="m 235.89251,120.13681 c -2.18644,4.44033 -6.56824,6.8393 -11.46791,4.58485 -4.89967,-2.25447 -2.71968,-8.09003 -0.53324,-12.53036 2.18643,-4.44032 6.42173,-7.67115 11.3214,-5.41669 4.89968,2.25447 2.86619,8.92188 0.67975,13.3622 z"
           id="path4140"
           inkscape:connector-curvature="0"
           sodipodi:nodetypes="sssss" />
        <path
           style="fill:#db00d9;fill-opacity:1;stroke:none;stroke-width:2;stroke-linecap:round;stroke-miterlimit:4;stroke-dasharray:none;stroke-dashoffset:0;stroke-opacity:1"
           d="m 270.75889,127.36847 c 0,17.12084 -12.37004,25.16472 -29.49087,25.16472 -17.12083,0 -24.82592,-17.8923 -10.62677,-7.65883 10.62677,7.65883 35.18082,-1.8115 34.77282,-36.10589 0,0 5.34482,1.47918 5.34482,18.6 z"
           id="ellipse4143"
           inkscape:connector-curvature="0"
           sodipodi:nodetypes="sssss" />
      </g>
      <ellipse
         transform="matrix(0.45271628,0,0,0.43154201,40.372797,-64.999019)"
         style="fill:#00ffff;fill-opacity:1;stroke:none;stroke-width:1.99999988;stroke-linecap:round;stroke-miterlimit:4;stroke-dasharray:none;stroke-dashoffset:0;stroke-opacity:1;filter:url(#filter4778)"
         id="ellipse4180"
         cx="237.32877"
         cy="263.01669"
         rx="33.472858"
         ry="34.170471" />
    </g>
    <path
       style="fill:#ff2a2a;fill-opacity:1;stroke:#ffffff;stroke-width:5.54242182;stroke-linecap:round;stroke-linejoin:round;stroke-miterlimit:4;stroke-dasharray:none;stroke-dashoffset:0;stroke-opacity:1"
       d="m 223.62526,47.087979 c 0,30.233297 -27.04773,44.971598 -51.5974,60.325431 -27.1808,-19.54125 -51.59731,-30.092134 -51.59731,-60.325431 0,-30.233237 44.15077,-41.1347533 51.59731,-10.427017 6.13106,-30.7077363 51.5974,-19.80622 51.5974,10.427017 z"
       id="path4846"
       inkscape:connector-curvature="0"
       sodipodi:nodetypes="scscs"
       inkscape:export-xdpi="89.017776"
       inkscape:export-ydpi="89.017776" />
    <flowRoot
       xml:space="preserve"
       id="flowRoot4927"
       style="font-style:normal;font-variant:normal;font-weight:bold;font-stretch:normal;font-size:40px;line-height:125%;font-family:monospace;-inkscape-font-specification:'monospace, Bold';text-align:start;letter-spacing:0px;word-spacing:0px;writing-mode:lr-tb;text-anchor:start;fill:url(#pattern4269);fill-opacity:1.0;stroke:none;stroke-width:1px;stroke-linecap:butt;stroke-linejoin:miter;stroke-opacity:1"
       transform="matrix(1.2870385,0,0,1.2870385,-12.176874,-42.735344)"
       inkscape:export-xdpi="89.992188"
       inkscape:export-ydpi="89.992188"><flowRegion
         id="flowRegion4929"><rect
           id="rect4931"
           width="384.21054"
           height="76.842102"
           x="103.68421"
           y="168.15167"
           style="font-style:normal;font-variant:normal;font-weight:bold;font-stretch:normal;font-size:40px;line-height:125%;font-family:monospace;-inkscape-font-specification:'monospace, Bold';text-align:start;writing-mode:lr-tb;text-anchor:start;fill:url(#pattern4269);fill-opacity:1.0" /></flowRegion><flowPara
         id="flowPara4933"
         style="font-style:normal;font-variant:normal;font-weight:bold;font-stretch:normal;font-size:39.99977493px;line-height:125%;font-family:'Courier New';-inkscape-font-specification:'Courier New, Bold';text-align:start;writing-mode:lr-tb;text-anchor:start;fill:url(#pattern4269);fill-opacity:1.0">GLITZSCAPE</flowPara></flowRoot>    <flowRoot
       xml:space="preserve"
       id="flowRoot4935"
       style="font-style:normal;font-weight:normal;font-size:40px;line-height:125%;font-family:sans-serif;letter-spacing:0px;word-spacing:0px;fill:url(#pattern4269);fill-opacity:1;stroke:none;stroke-width:1px;stroke-linecap:butt;stroke-linejoin:miter;stroke-opacity:1"
       transform="matrix(0.80973616,0,0,0.80973616,20.416817,25.046571)"
       inkscape:export-xdpi="89.992188"
       inkscape:export-ydpi="89.992188"><flowRegion
         id="flowRegion4937"><rect
           id="rect4939"
           width="566.8421"
           height="82.105263"
           x="15.789474"
           y="254.46747"
           style="fill:url(#pattern4269);fill-opacity:1" /></flowRegion><flowPara
         style="font-style:normal;font-variant:normal;font-weight:bold;font-stretch:normal;font-size:40px;line-height:125%;font-family:'Courier New';-inkscape-font-specification:'Courier New, Bold';text-align:start;writing-mode:lr-tb;text-anchor:start;fill:url(#pattern4269);fill-opacity:1"
         id="flowPara4943">escape from the caves glitzcaves</flowPara></flowRoot>    <rect
       style="fill:url(#pattern4990);stroke:none"
       width="241.9375"
       height="223.96875"
       x="273.5625"
       y="325.92471"
       id="rect4272" />
    <flowRoot
       xml:space="preserve"
       id="flowRoot4185"
       style="font-style:normal;font-weight:normal;font-size:40px;line-height:125%;font-family:sans-serif;letter-spacing:0px;word-spacing:0px;fill:url(#linearGradient4215);fill-opacity:1;stroke:#000000;stroke-width:1;stroke-linecap:butt;stroke-linejoin:miter;stroke-miterlimit:4;stroke-dasharray:none;stroke-opacity:1"
       transform="translate(-16.40625,44.53125)"><flowRegion
         id="flowRegion4187"
         style="fill:url(#linearGradient4232);fill-opacity:1"><rect
           id="rect4189"
           width="354.6875"
           height="97.65625"
           x="42.96875"
           y="332.04971"
           style="fill:url(#linearGradient4230);fill-opacity:1;stroke:#000000;stroke-width:1;stroke-miterlimit:4;stroke-dasharray:none;stroke-opacity:1" /></flowRegion><flowPara
         id="flowPara4191"
         style="font-style:normal;font-variant:normal;font-weight:bold;font-stretch:normal;font-size:40px;line-height:125%;font-family:'Courier New';-inkscape-font-specification:'Courier New, Bold';text-align:start;writing-mode:lr-tb;text-anchor:start;fill:url(#linearGradient4234);fill-opacity:1;stroke:#000000;stroke-width:1;stroke-miterlimit:4;stroke-dasharray:none;stroke-opacity:1">Game Over</flowPara></flowRoot>    <g
       id="g4179"
       transform="matrix(-1.9975164,0,0,-1.7613251,646.50069,1461.3049)"
       inkscape:export-xdpi="89.757401"
       inkscape:export-ydpi="89.757401">
      <path
         style="fill:#ffffff;fill-opacity:1;fill-rule:evenodd;stroke:#000000;stroke-width:2;stroke-linecap:butt;stroke-linejoin:miter;stroke-miterlimit:4;stroke-dasharray:none;stroke-opacity:1"
         d="m 75,403.9247 7.934948,48.30754 24.144882,-47.2889 19.01442,43.09019 21.99318,-40.85574 19.79968,42.46913 20.21309,-41.67877 17.37142,42.16951 22.52485,-39.01419 29.9601,39.71392 17.72844,-50.18173 37.09389,46.76955 9.1108,-42.70455"
         id="path4181"
         inkscape:connector-curvature="0"
         sodipodi:nodetypes="ccccccccccccc" />
      <rect
         style="fill:#000000;fill-opacity:1;stroke:none;stroke-width:0.68169719;stroke-linecap:round;stroke-linejoin:round;stroke-miterlimit:4;stroke-dasharray:none;stroke-dashoffset:0;stroke-opacity:1"
         id="rect4183"
         width="256.3183"
         height="250.84956"
         x="71.715851"
         y="163.92181"
         rx="0"
         ry="0" />
    </g>
    <g
       transform="translate(264.84375,850.78125)"
       style="font-style:normal;font-weight:normal;font-size:40px;line-height:125%;font-family:sans-serif;letter-spacing:0px;word-spacing:0px;fill:url(#pattern4269);fill-opacity:1;stroke:#000000;stroke-width:1;stroke-linecap:butt;stroke-linejoin:miter;stroke-miterlimit:4;stroke-dasharray:none;stroke-opacity:1"
       id="flowRoot4236"
       inkscape:export-xdpi="96.260201"
       inkscape:export-ydpi="96.260201">
      <path
         d="m 65.058594,361.4703 0,5.37109 q -2.714844,1.46485 -4.628907,1.99219 -1.894531,0.54688 -4.101562,0.54688 -3.066406,0 -5.683594,-0.91797 -2.050781,-0.70313 -3.242187,-1.77735 -1.171875,-1.07422 -2.167969,-3.16406 -0.996094,-2.10937 -0.996094,-4.70703 l 0,-2.89063 q 0,-4.0039 2.441406,-7.14843 3.28125,-4.25782 8.925782,-4.25782 1.640625,0 3.105468,0.33204 1.484375,0.33203 2.8125,0.99609 0.800782,-0.72266 1.5625,-0.72266 0.878907,0 1.425782,0.60547 0.546875,0.60547 0.546875,2.05078 l 0,2.59766 q 0,1.44531 -0.566407,2.07031 -0.546875,0.60547 -1.425781,0.60547 -0.703125,0 -1.210937,-0.42969 -0.390625,-0.29297 -0.664063,-1.28906 -0.253906,-1.01562 -0.585937,-1.36719 -0.527344,-0.5664 -1.875,-0.99609 -1.328125,-0.44922 -2.988282,-0.44922 -2.382812,0 -4.140625,0.97656 -1.25,0.72266 -2.304687,2.51953 -1.054688,1.79688 -1.054688,3.90625 l 0,2.89063 q 0,3.22266 1.855469,4.90234 1.875,1.66016 5.9375,1.66016 2.753906,0 5.019531,-1.03516 l 0,-2.87109 -4.082031,0 q -1.445312,0 -2.070312,-0.54688 -0.605469,-0.5664 -0.605469,-1.46484 0,-0.89844 0.605469,-1.44531 0.625,-0.56641 2.070312,-0.56641 l 7.109375,0.0195 q 1.445313,0 2.050781,0.54688 0.625,0.54687 0.625,1.44531 0,0.70313 -0.429687,1.23047 -0.410156,0.52734 -1.269531,0.78125 z"
         style="font-style:normal;font-variant:normal;font-weight:bold;font-stretch:normal;font-size:40px;line-height:125%;font-family:'Courier New';-inkscape-font-specification:'Courier New, Bold';text-align:start;writing-mode:lr-tb;text-anchor:start;fill:url(#pattern4269);fill-opacity:1;stroke:#000000;stroke-width:1;stroke-miterlimit:4;stroke-dasharray:none;stroke-opacity:1"
         id="path4253"
         inkscape:connector-curvature="0" />
      <path
         d="m 82.558594,368.79452 0,-0.9375 q -1.503907,0.80078 -3.320313,1.1914 -1.816406,0.41016 -3.300781,0.41016 -3.222656,0 -5.234375,-1.69922 -2.011719,-1.71875 -2.011719,-3.78906 0,-2.51953 2.558594,-4.66797 2.578125,-2.16797 7.109375,-2.16797 1.816406,0 4.199219,0.39063 l 0,-0.95703 q 0,-0.89844 -0.78125,-1.46485 -0.761719,-0.5664 -2.929688,-0.5664 -1.777344,0 -4.609375,0.70312 -1.054687,0.25391 -1.640625,0.25391 -0.800781,0 -1.367187,-0.56641 -0.546875,-0.58594 -0.546875,-1.48437 0,-0.50782 0.195312,-0.87891 0.195313,-0.37109 0.546875,-0.58594 0.351563,-0.23437 1.464844,-0.54687 1.484375,-0.41016 3.027344,-0.64453 1.542968,-0.25391 2.792968,-0.25391 3.730469,0 5.78125,1.62109 2.070313,1.60157 2.070313,4.39453 l 0,8.24219 0.683594,0 q 1.445312,0 2.050781,0.56641 0.625,0.54687 0.625,1.44531 0,0.87891 -0.625,1.44531 -0.605469,0.54688 -2.050781,0.54688 l -4.6875,0 z m 0,-7.16797 Q 80.15625,361.1578 78.125,361.1578 q -2.441406,0 -4.199219,1.19141 -1.09375,0.76171 -1.09375,1.54296 0,0.56641 0.527344,0.91797 0.976562,0.64453 2.675781,0.64453 1.445313,0 3.261719,-0.5664 1.835937,-0.56641 3.261719,-1.54297 l 0,-1.71875 z"
         style="font-style:normal;font-variant:normal;font-weight:bold;font-stretch:normal;font-size:40px;line-height:125%;font-family:'Courier New';-inkscape-font-specification:'Courier New, Bold';text-align:start;writing-mode:lr-tb;text-anchor:start;fill:url(#pattern4269);fill-opacity:1;stroke:#000000;stroke-width:1;stroke-miterlimit:4;stroke-dasharray:none;stroke-opacity:1"
         id="path4255"
         inkscape:connector-curvature="0" />
      <path
         d="m 96.757812,351.06014 0,1.13282 q 0.976563,-0.95704 1.757813,-1.3086 0.800781,-0.37109 1.835935,-0.37109 0.87891,0 1.73828,0.42969 0.85938,0.42968 1.67969,1.28906 1.03516,-0.85938 2.08985,-1.26953 1.07421,-0.42969 2.1875,-0.42969 2.22656,0 3.61328,1.19141 1.83593,1.5625 1.83593,4.10156 l 0,8.96484 q 1.25,0 1.85547,0.56641 0.60547,0.5664 0.60547,1.44531 0,0.87891 -0.60547,1.44531 -0.60547,0.54688 -2.05078,0.54688 l -3.80859,0 0,-12.63672 q 0,-0.91797 -0.33203,-1.26953 -0.33203,-0.35156 -1.01563,-0.35156 -0.66406,0 -1.23047,0.35156 -0.72265,0.48828 -1.75781,1.83594 l 0,8.0664 q 1.25,0 1.85547,0.56641 0.60547,0.5664 0.60547,1.44531 0,0.87891 -0.60547,1.44531 -0.60547,0.54688 -2.05078,0.54688 l -3.8086,0 0,-12.63672 q 0,-0.89844 -0.35156,-1.25 -0.33203,-0.37109 -1.015624,-0.37109 -0.703125,0 -1.386719,0.44921 -0.683593,0.42969 -1.640625,1.73829 l 0,8.0664 q 1.25,0 1.855469,0.56641 0.625,0.5664 0.625,1.44531 0,0.87891 -0.625,1.44531 -0.605469,0.54688 -2.050781,0.54688 l -3.613281,0 q -1.445313,0 -2.050782,-0.54688 -0.625,-0.5664 -0.625,-1.46484 0,-0.87891 0.605469,-1.42578 0.605469,-0.56641 1.875,-0.56641 l 0,-9.72656 q -1.269531,0 -1.875,-0.56641 -0.605469,-0.5664 -0.605469,-1.44531 0,-0.87891 0.625,-1.42578 0.605469,-0.56641 2.050782,-0.56641 l 3.808593,0 z"
         style="font-style:normal;font-variant:normal;font-weight:bold;font-stretch:normal;font-size:40px;line-height:125%;font-family:'Courier New';-inkscape-font-specification:'Courier New, Bold';text-align:start;writing-mode:lr-tb;text-anchor:start;fill:url(#pattern4269);fill-opacity:1;stroke:#000000;stroke-width:1;stroke-miterlimit:4;stroke-dasharray:none;stroke-opacity:1"
         id="path4257"
         inkscape:connector-curvature="0" />
      <path
         d="m 136.97266,361.95858 -16.42578,0 q 0.625,1.5625 2.20703,2.51953 1.60156,0.95703 4.3164,0.95703 2.22656,0 5.91797,-0.95703 1.52344,-0.39062 2.10938,-0.39062 0.80078,0 1.34765,0.5664 0.54688,0.56641 0.54688,1.42578 0,0.78125 -0.58594,1.32813 -0.78125,0.72266 -3.80859,1.38672 -3.02735,0.64453 -5.82032,0.64453 -4.80468,0 -7.69531,-2.71484 -2.87109,-2.71485 -2.87109,-6.67969 0,-4.21875 3.10547,-6.85547 3.125,-2.65625 7.1875,-2.65625 2.4414,0 4.47265,0.85937 2.05078,0.85938 3.04688,1.85547 1.40625,1.44532 2.32422,3.57422 0.625,1.48438 0.625,3.4375 l 0,1.69922 z m -4.4336,-4.00391 q -0.91797,-1.71875 -2.40234,-2.55859 -1.48438,-0.85937 -3.53516,-0.85937 -2.03125,0 -3.51562,0.85937 -1.48438,0.83984 -2.42188,2.55859 l 11.875,0 z"
         style="font-style:normal;font-variant:normal;font-weight:bold;font-stretch:normal;font-size:40px;line-height:125%;font-family:'Courier New';-inkscape-font-specification:'Courier New, Bold';text-align:start;writing-mode:lr-tb;text-anchor:start;fill:url(#pattern4269);fill-opacity:1;stroke:#000000;stroke-width:1;stroke-miterlimit:4;stroke-dasharray:none;stroke-opacity:1"
         id="path4259"
         inkscape:connector-curvature="0" />
      <path
         d="m 186.13281,356.95858 q 0,5.33203 -3.39844,8.88672 -3.3789,3.53516 -7.83203,3.53516 -4.0039,0 -7.22656,-2.94922 -3.98437,-3.65235 -3.98437,-9.47266 0,-5.82031 3.98437,-9.49219 3.22266,-2.94922 7.22656,-2.94922 4.45313,0 7.83203,3.55469 3.39844,3.53516 3.39844,8.88672 z m -4.0039,0 q 0,-3.65234 -2.20704,-6.03516 -2.20703,-2.40234 -5.01953,-2.40234 -2.79297,0 -5,2.40234 -2.20703,2.40235 -2.20703,6.03516 0,3.63281 2.20703,6.03516 2.20703,2.38281 5,2.38281 2.8125,0 5.01953,-2.38281 2.20704,-2.38282 2.20704,-6.03516 z"
         style="font-style:normal;font-variant:normal;font-weight:bold;font-stretch:normal;font-size:40px;line-height:125%;font-family:'Courier New';-inkscape-font-specification:'Courier New, Bold';text-align:start;writing-mode:lr-tb;text-anchor:start;fill:url(#pattern4269);fill-opacity:1;stroke:#000000;stroke-width:1;stroke-miterlimit:4;stroke-dasharray:none;stroke-opacity:1"
         id="path4261"
         inkscape:connector-curvature="0" />
      <path
         d="m 198.90625,363.93124 4.31641,-8.86719 q -1.60157,0 -2.05079,-0.27344 -0.97656,-0.60547 -0.97656,-1.73828 0,-0.87891 0.60547,-1.42578 0.625,-0.56641 2.07031,-0.56641 l 5.48828,0 q 1.44532,0 2.05079,0.56641 0.625,0.54687 0.625,1.44531 0,0.87891 -0.625,1.44531 -0.60547,0.54688 -2.05079,0.54688 l -0.66406,0 -6.69922,13.73047 -4.17968,0 -6.69922,-13.73047 -0.56641,0 q -1.44531,0 -2.07031,-0.54688 -0.60547,-0.5664 -0.60547,-1.46484 0,-0.87891 0.60547,-1.42578 0.625,-0.56641 2.07031,-0.56641 l 5.37109,0 q 1.42579,0 2.03125,0.56641 0.625,0.54687 0.625,1.44531 0,1.11328 -0.9375,1.69922 -0.46875,0.29297 -2.08984,0.29297 l 4.35547,8.86719 z"
         style="font-style:normal;font-variant:normal;font-weight:bold;font-stretch:normal;font-size:40px;line-height:125%;font-family:'Courier New';-inkscape-font-specification:'Courier New, Bold';text-align:start;writing-mode:lr-tb;text-anchor:start;fill:url(#pattern4269);fill-opacity:1;stroke:#000000;stroke-width:1;stroke-miterlimit:4;stroke-dasharray:none;stroke-opacity:1"
         id="path4263"
         inkscape:connector-curvature="0" />
      <path
         d="m 232.91016,361.95858 -16.42579,0 q 0.625,1.5625 2.20704,2.51953 1.60156,0.95703 4.3164,0.95703 2.22656,0 5.91797,-0.95703 1.52344,-0.39062 2.10938,-0.39062 0.80078,0 1.34765,0.5664 0.54688,0.56641 0.54688,1.42578 0,0.78125 -0.58594,1.32813 -0.78125,0.72266 -3.80859,1.38672 -3.02735,0.64453 -5.82032,0.64453 -4.80468,0 -7.69531,-2.71484 -2.87109,-2.71485 -2.87109,-6.67969 0,-4.21875 3.10547,-6.85547 3.125,-2.65625 7.1875,-2.65625 2.4414,0 4.47265,0.85937 2.05078,0.85938 3.04688,1.85547 1.40625,1.44532 2.32422,3.57422 0.625,1.48438 0.625,3.4375 l 0,1.69922 z m -4.4336,-4.00391 q -0.91797,-1.71875 -2.40234,-2.55859 -1.48438,-0.85937 -3.53516,-0.85937 -2.03125,0 -3.51562,0.85937 -1.48438,0.83984 -2.42188,2.55859 l 11.875,0 z"
         style="font-style:normal;font-variant:normal;font-weight:bold;font-stretch:normal;font-size:40px;line-height:125%;font-family:'Courier New';-inkscape-font-specification:'Courier New, Bold';text-align:start;writing-mode:lr-tb;text-anchor:start;fill:url(#pattern4269);fill-opacity:1;stroke:#000000;stroke-width:1;stroke-miterlimit:4;stroke-dasharray:none;stroke-opacity:1"
         id="path4265"
         inkscape:connector-curvature="0" />
      <path
         d="m 246.01562,351.06014 0,2.5 q 2.51954,-1.8164 3.96485,-2.42187 1.46484,-0.60547 2.73437,-0.60547 1.95313,0 3.78907,1.44531 1.25,0.97656 1.25,1.99219 0,0.85937 -0.60547,1.46484 -0.58594,0.58594 -1.42578,0.58594 -0.74219,0 -1.5625,-0.74219 -0.82032,-0.74218 -1.46485,-0.74218 -0.83984,0 -2.51953,1.05468 -1.66016,1.05469 -4.16016,3.16407 l 0,6.03515 5.70313,0 q 1.44531,0 2.05078,0.56641 0.625,0.54687 0.625,1.44531 0,0.87891 -0.625,1.44531 -0.60547,0.54688 -2.05078,0.54688 l -12.08984,0 q -1.44532,0 -2.07032,-0.54688 -0.60547,-0.5664 -0.60547,-1.46484 0,-0.87891 0.60547,-1.42578 0.625,-0.56641 2.07032,-0.56641 l 2.38281,0 0,-9.72656 -1.44531,0 q -1.44532,0 -2.07032,-0.54688 -0.60547,-0.5664 -0.60547,-1.46484 0,-0.87891 0.60547,-1.42578 0.625,-0.56641 2.07032,-0.56641 l 5.44921,0 z"
         style="font-style:normal;font-variant:normal;font-weight:bold;font-stretch:normal;font-size:40px;line-height:125%;font-family:'Courier New';-inkscape-font-specification:'Courier New, Bold';text-align:start;writing-mode:lr-tb;text-anchor:start;fill:url(#pattern4269);fill-opacity:1;stroke:#000000;stroke-width:1;stroke-miterlimit:4;stroke-dasharray:none;stroke-opacity:1"
         id="path4267"
         inkscape:connector-curvature="0" />
    </g>
    <g
       id="g5072"
       transform="translate(24.21875,17.1875)"
       inkscape:export-xdpi="89.992188"
       inkscape:export-ydpi="89.992188">
      <path
         style="fill:#ff0000;fill-opacity:1;stroke:#000000;stroke-width:2.00730634;stroke-linecap:round;stroke-miterlimit:4;stroke-dasharray:none;stroke-dashoffset:0;stroke-opacity:1"
         id="path5052"
         sodipodi:type="arc"
         sodipodi:cx="155.19563"
         sodipodi:cy="96.590523"
         sodipodi:rx="6.5570507"
         sodipodi:ry="6.5625997"
         sodipodi:start="0"
         sodipodi:end="3.0764562"
         d="m 161.75268,96.590523 a 6.5570507,6.5625997 0 0 1 -6.34353,6.559117 6.5570507,6.5625997 0 0 1 -6.75666,-6.131955 l 6.54314,-0.427162 z"
         transform="matrix(0.74424809,0.66790327,-0.66245083,0.7491054,0,0)" />
      <path
         transform="matrix(-0.74424809,0.66790327,0.66245083,0.7491054,0,0)"
         d="m 69.808187,178.56836 a 6.5570507,6.5625997 0 0 1 -6.343536,6.55912 6.5570507,6.5625997 0 0 1 -6.75666,-6.13196 l 6.543146,-0.42716 z"
         sodipodi:end="3.0764562"
         sodipodi:start="0"
         sodipodi:ry="6.5625997"
         sodipodi:rx="6.5570507"
         sodipodi:cy="178.56836"
         sodipodi:cx="63.251137"
         sodipodi:type="arc"
         id="path5054"
         style="fill:#ff0000;fill-opacity:1;stroke:#000000;stroke-width:2.00730634;stroke-linecap:round;stroke-miterlimit:4;stroke-dasharray:none;stroke-dashoffset:0;stroke-opacity:1" />
      <rect
         style="fill:#ff0000;fill-opacity:1;stroke:#000000;stroke-width:2.0072794;stroke-linecap:round;stroke-miterlimit:4;stroke-dasharray:none;stroke-dashoffset:0;stroke-opacity:1"
         id="rect5056"
         width="41.023914"
         height="18.080385"
         x="40.803455"
         y="187.94972"
         rx="4.94485"
         ry="7.1030054" />
      <path
         style="fill:#ffffff;fill-rule:evenodd;stroke:#000000;stroke-width:1.0036397px;stroke-linecap:butt;stroke-linejoin:miter;stroke-opacity:1"
         d="m 45.342305,188.90032 3.464293,5.51388 7.646345,-5.51388 6.028295,5.51388 4.655012,-5.51388 4.318967,5.51388 5.509676,-5.51388"
         id="path5058"
         inkscape:connector-curvature="0"
         sodipodi:nodetypes="ccccccc" />
      <path
         sodipodi:nodetypes="ccccccc"
         inkscape:connector-curvature="0"
         id="path5060"
         d="m 45.342305,205.31198 3.464293,-5.06159 7.646345,5.06159 6.028295,-5.06159 4.655012,5.06159 4.318967,-5.06159 5.509676,5.06159"
         style="fill:#ffffff;fill-rule:evenodd;stroke:#000000;stroke-width:1.0036397px;stroke-linecap:butt;stroke-linejoin:miter;stroke-opacity:1" />
    </g>
    <flowRoot
       inkscape:export-ydpi="89.992188"
       inkscape:export-xdpi="89.992188"
       transform="matrix(0.80973616,0,0,0.80973616,150.88557,64.109071)"
       style="font-style:normal;font-weight:normal;font-size:40px;line-height:125%;font-family:sans-serif;letter-spacing:0px;word-spacing:0px;fill:url(#pattern4269);fill-opacity:1;stroke:none;stroke-width:1px;stroke-linecap:butt;stroke-linejoin:miter;stroke-opacity:1"
       id="flowRoot4915"
       xml:space="preserve"><flowRegion
         id="flowRegion4917"><rect
           style="fill:url(#pattern4269);fill-opacity:1"
           y="254.46747"
           x="15.789474"
           height="82.105263"
           width="566.8421"
           id="rect4919" /></flowRegion><flowPara
         id="flowPara4921"
         style="font-style:normal;font-variant:normal;font-weight:bold;font-stretch:normal;font-size:40px;line-height:125%;font-family:'Courier New';-inkscape-font-specification:'Courier New, Bold';text-align:start;writing-mode:lr-tb;text-anchor:start;fill:url(#pattern4269);fill-opacity:1">hunt the beast</flowPara></flowRoot>    <flowRoot
       xml:space="preserve"
       id="flowRoot4923"
       style="font-style:normal;font-weight:normal;font-size:32.38944626px;line-height:125%;font-family:sans-serif;letter-spacing:0px;word-spacing:0px;fill:url(#pattern4933);fill-opacity:1;stroke:none;stroke-width:1px;stroke-linecap:butt;stroke-linejoin:miter;stroke-opacity:1"
       inkscape:export-xdpi="89.992188"
       inkscape:export-ydpi="89.992188"
       transform="translate(-55.46875,-239.0625)"><flowRegion
         id="flowRegion4925"
         style="fill:url(#pattern4933)"><rect
           id="rect4927"
           width="596.49255"
           height="175.8586"
           x="226.95213"
           y="114.69183"
           style="fill:url(#pattern4933);fill-opacity:1" /></flowRegion><flowPara
         style="font-style:normal;font-variant:normal;font-weight:bold;font-stretch:normal;font-size:32.38944626px;line-height:125%;font-family:'Courier New';-inkscape-font-specification:'Courier New, Bold';text-align:start;writing-mode:lr-tb;text-anchor:start;fill:url(#pattern4933);fill-opacity:1"
         id="flowPara4935">the beast is slain!</flowPara><flowPara
         style="font-style:normal;font-variant:normal;font-weight:bold;font-stretch:normal;font-size:32.38944626px;line-height:125%;font-family:'Courier New';-inkscape-font-specification:'Courier New, Bold';text-align:start;writing-mode:lr-tb;text-anchor:start;fill:url(#pattern4933);fill-opacity:1"
         id="flowPara4941">   ...but you fall into a </flowPara><flowPara
         style="font-style:normal;font-variant:normal;font-weight:bold;font-stretch:normal;font-size:32.38944626px;line-height:125%;font-family:'Courier New';-inkscape-font-specification:'Courier New, Bold';text-align:start;writing-mode:lr-tb;text-anchor:start;fill:url(#pattern4933);fill-opacity:1"
         id="flowPara4944">              deeper cavern</flowPara><flowPara
         style="font-style:normal;font-variant:normal;font-weight:bold;font-stretch:normal;font-size:32.38944626px;line-height:125%;font-family:'Courier New';-inkscape-font-specification:'Courier New, Bold';text-align:start;writing-mode:lr-tb;text-anchor:start;fill:url(#pattern4933);fill-opacity:1"
         id="flowPara4939" /></flowRoot>    <flowRoot
       xml:space="preserve"
       id="flowRoot4946"
       style="font-style:normal;font-weight:normal;font-size:32.38944626px;line-height:125%;font-family:sans-serif;letter-spacing:0px;word-spacing:0px;fill:url(#pattern4956);fill-opacity:1;stroke:none;stroke-width:1px;stroke-linecap:butt;stroke-linejoin:miter;stroke-opacity:1"
       inkscape:export-xdpi="89.992188"
       inkscape:export-ydpi="89.992188"
       transform="translate(-2.34375,-22.65625)"><flowRegion
         id="flowRegion4948"
         style="fill:url(#pattern4956)"><rect
           id="rect4950"
           width="546.49255"
           height="64.139847"
           x="412.88962"
           y="60.004333"
           style="fill:url(#pattern4956);fill-opacity:1" /></flowRegion><flowPara
         style="font-style:normal;font-variant:normal;font-weight:bold;font-stretch:normal;font-size:32.38944626px;line-height:125%;font-family:'Courier New';-inkscape-font-specification:'Courier New, Bold';text-align:start;writing-mode:lr-tb;text-anchor:start;fill:url(#pattern4956);fill-opacity:1"
         id="flowPara4952">danger! the beast is near</flowPara></flowRoot>    <flowRoot
       transform="translate(155.41667,74.84375)"
       inkscape:export-ydpi="89.992188"
       inkscape:export-xdpi="89.992188"
       style="font-style:normal;font-weight:normal;font-size:32.38944626px;line-height:125%;font-family:sans-serif;letter-spacing:0px;word-spacing:0px;fill:url(#pattern4956);fill-opacity:1;stroke:none;stroke-width:1px;stroke-linecap:butt;stroke-linejoin:miter;stroke-opacity:1"
       id="flowRoot4958"
       xml:space="preserve"><flowRegion
         style="fill:url(#pattern4956)"
         id="flowRegion4960"><rect
           style="fill:url(#pattern4956);fill-opacity:1"
           y="60.004333"
           x="412.88962"
           height="68.046097"
           width="628.5238"
           id="rect4962" /></flowRegion><flowPara
         id="flowPara4964"
         style="font-style:normal;font-variant:normal;font-weight:bold;font-stretch:normal;font-size:32.38944626px;line-height:125%;font-family:'Courier New';-inkscape-font-specification:'Courier New, Bold';text-align:start;writing-mode:lr-tb;text-anchor:start;fill:url(#pattern4956);fill-opacity:1">you have used your only bullet</flowPara></flowRoot>    <flowRoot
       xml:space="preserve"
       id="flowRoot4966"
       style="font-style:normal;font-weight:normal;font-size:32.38944626px;line-height:125%;font-family:sans-serif;letter-spacing:0px;word-spacing:0px;fill:url(#pattern4956);fill-opacity:1;stroke:none;stroke-width:1px;stroke-linecap:butt;stroke-linejoin:miter;stroke-opacity:1"
       inkscape:export-xdpi="89.992188"
       inkscape:export-ydpi="89.992188"
       transform="translate(-9.375,79.6875)"><flowRegion
         id="flowRegion4968"
         style="fill:url(#pattern4956)"><rect
           id="rect4970"
           width="628.5238"
           height="68.046097"
           x="412.88962"
           y="60.004333"
           style="fill:url(#pattern4956);fill-opacity:1" /></flowRegion><flowPara
         style="font-style:normal;font-variant:normal;font-weight:bold;font-stretch:normal;font-size:32.38944626px;line-height:125%;font-family:'Courier New';-inkscape-font-specification:'Courier New, Bold';text-align:start;writing-mode:lr-tb;text-anchor:start;fill:url(#pattern4956);fill-opacity:1"
         id="flowPara4972" /></flowRoot>    <path
       sodipodi:type="star"
       style="opacity:1;fill:#ffffff;fill-opacity:1;stroke:none;stroke-width:4;stroke-linecap:round;stroke-linejoin:round;stroke-miterlimit:4;stroke-dasharray:none;stroke-dashoffset:0;stroke-opacity:1"
       id="path4974"
       sodipodi:sides="4"
       sodipodi:cx="823.33331"
       sodipodi:cy="235.69554"
       sodipodi:r1="77.817451"
       sodipodi:r2="27.180313"
       sodipodi:arg1="0.81569192"
       sodipodi:arg2="1.615949"
       inkscape:flatsided="false"
       inkscape:rounded="0"
       inkscape:randomized="0"
       d="m 876.66665,292.36221 -54.56018,-29.51406 -55.43982,26.18073 29.51405,-54.56019 -26.18072,-55.43982 54.56018,29.51406 55.43982,-26.18072 -29.51406,54.56018 z"
       inkscape:transform-center-x="1.8773857"
       inkscape:transform-center-y="-14.202251"
       transform="matrix(0.7202839,0.69367939,-0.69367939,0.7202839,-40.209947,149.52359)"
       inkscape:export-xdpi="89.992188"
       inkscape:export-ydpi="89.992188" />
    <flowRoot
       xml:space="preserve"
       id="flowRoot4976"
       style="font-style:normal;font-weight:normal;font-size:32.38944626px;line-height:125%;font-family:sans-serif;letter-spacing:0px;word-spacing:0px;fill:url(#pattern4956);fill-opacity:1;stroke:none;stroke-width:1px;stroke-linecap:butt;stroke-linejoin:miter;stroke-opacity:1"
       inkscape:export-xdpi="89.992188"
       inkscape:export-ydpi="89.992188"
       transform="translate(112.08333,146.51042)"><flowRegion
         id="flowRegion4978"
         style="fill:url(#pattern4956)"><rect
           id="rect4980"
           width="628.5238"
           height="68.046097"
           x="412.88962"
           y="60.004333"
           style="fill:url(#pattern4956);fill-opacity:1" /></flowRegion><flowPara
         style="font-style:normal;font-variant:normal;font-weight:bold;font-stretch:normal;font-size:32.38944626px;line-height:125%;font-family:'Courier New';-inkscape-font-specification:'Courier New, Bold';text-align:start;writing-mode:lr-tb;text-anchor:start;fill:url(#pattern4956);fill-opacity:1"
         id="flowPara4982">you pick up a bullet</flowPara></flowRoot>    <flowRoot
       transform="translate(208.75001,266.51041)"
       inkscape:export-ydpi="89.992188"
       inkscape:export-xdpi="89.992188"
       style="font-style:normal;font-weight:normal;font-size:32.38944626px;line-height:125%;font-family:sans-serif;letter-spacing:0px;word-spacing:0px;fill:url(#pattern4956);fill-opacity:1;stroke:none;stroke-width:1px;stroke-linecap:butt;stroke-linejoin:miter;stroke-opacity:1"
       id="flowRoot4984"
       xml:space="preserve"><flowRegion
         style="fill:url(#pattern4956)"
         id="flowRegion4986"><rect
           style="fill:url(#pattern4956);fill-opacity:1"
           y="60.004333"
           x="412.88962"
           height="104.71276"
           width="631.85718"
           id="rect4988" /></flowRegion><flowPara
         id="flowPara4990"
         style="font-style:normal;font-variant:normal;font-weight:bold;font-stretch:normal;font-size:32.38944626px;line-height:125%;font-family:'Courier New';-inkscape-font-specification:'Courier New, Bold';text-align:start;writing-mode:lr-tb;text-anchor:start;fill:url(#pattern4956);fill-opacity:1">the beast heard your bullet</flowPara><flowPara
         style="font-style:normal;font-variant:normal;font-weight:bold;font-stretch:normal;font-size:32.38944626px;line-height:125%;font-family:'Courier New';-inkscape-font-specification:'Courier New, Bold';text-align:start;writing-mode:lr-tb;text-anchor:start;fill:url(#pattern4956);fill-opacity:1"
         id="flowPara4992">   ...and ate you</flowPara></flowRoot>    <flowRoot
       transform="translate(262.08333,439.84375)"
       inkscape:export-ydpi="89.992188"
       inkscape:export-xdpi="89.992188"
       style="font-style:normal;font-weight:normal;font-size:32.38944626px;line-height:125%;font-family:sans-serif;letter-spacing:0px;word-spacing:0px;fill:url(#pattern4956);fill-opacity:1;stroke:none;stroke-width:1px;stroke-linecap:butt;stroke-linejoin:miter;stroke-opacity:1"
       id="flowRoot4994"
       xml:space="preserve"><flowRegion
         style="fill:url(#pattern4956)"
         id="flowRegion4996"><rect
           style="fill:url(#pattern4956);fill-opacity:1"
           y="60.004333"
           x="412.88962"
           height="68.046097"
           width="628.5238"
           id="rect4998" /></flowRegion><flowPara
         id="flowPara5000"
         style="font-style:normal;font-variant:normal;font-weight:bold;font-stretch:normal;font-size:32.38944626px;line-height:125%;font-family:'Courier New';-inkscape-font-specification:'Courier New, Bold';text-align:start;writing-mode:lr-tb;text-anchor:start;fill:url(#pattern4956);fill-opacity:1">relief! you escape the caves!</flowPara></flowRoot>    <flowRoot
       xml:space="preserve"
       id="flowRoot5002"
       style="font-style:normal;font-weight:normal;font-size:32.38944626px;line-height:125%;font-family:sans-serif;letter-spacing:0px;word-spacing:0px;fill:url(#pattern4956);fill-opacity:1;stroke:none;stroke-width:1px;stroke-linecap:butt;stroke-linejoin:miter;stroke-opacity:1"
       inkscape:export-xdpi="89.992188"
       inkscape:export-ydpi="89.992188"
       transform="translate(155.41667,546.51041)"><flowRegion
         id="flowRegion5004"
         style="fill:url(#pattern4956)"><rect
           id="rect5006"
           width="906.85718"
           height="111.37943"
           x="412.88962"
           y="60.004333"
           style="fill:url(#pattern4956);fill-opacity:1" /></flowRegion><flowPara
         style="font-style:normal;font-variant:normal;font-weight:bold;font-stretch:normal;font-size:32.38944626px;line-height:125%;font-family:'Courier New';-inkscape-font-specification:'Courier New, Bold';text-align:start;writing-mode:lr-tb;text-anchor:start;fill:url(#pattern4956);fill-opacity:1"
         id="flowPara5008">you stumbled into the beast's lair</flowPara><flowPara
         id="flowPara5010"
         style="font-style:normal;font-variant:normal;font-weight:bold;font-stretch:normal;font-size:32.38944626px;line-height:125%;font-family:'Courier New';-inkscape-font-specification:'Courier New, Bold';text-align:start;writing-mode:lr-tb;text-anchor:start;fill:url(#pattern4956);fill-opacity:1">   ...and it ate you</flowPara></flowRoot>    <flowRoot
       transform="translate(267.65625,-230.98959)"
       inkscape:export-ydpi="89.992188"
       inkscape:export-xdpi="89.992188"
       style="font-style:normal;font-weight:normal;font-size:32.38944626px;line-height:125%;font-family:sans-serif;letter-spacing:0px;word-spacing:0px;fill:url(#pattern4956);fill-opacity:1;stroke:none;stroke-width:1px;stroke-linecap:butt;stroke-linejoin:miter;stroke-opacity:1"
       id="flowRoot4959"
       xml:space="preserve"><flowRegion
         style="fill:url(#pattern4956)"
         id="flowRegion4961"><rect
           style="fill:url(#pattern4956);fill-opacity:1"
           y="60.004333"
           x="412.88962"
           height="84.139854"
           width="661.49255"
           id="rect4963" /></flowRegion><flowPara
         id="flowPara4965"
         style="font-style:normal;font-variant:normal;font-weight:bold;font-stretch:normal;font-size:32.38944626px;line-height:125%;font-family:'Courier New';-inkscape-font-specification:'Courier New, Bold';text-align:start;writing-mode:lr-tb;text-anchor:start;fill:url(#pattern4956);fill-opacity:1">the spawns stole your strength</flowPara><flowPara
         style="font-style:normal;font-variant:normal;font-weight:bold;font-stretch:normal;font-size:32.38944626px;line-height:125%;font-family:'Courier New';-inkscape-font-specification:'Courier New, Bold';text-align:start;writing-mode:lr-tb;text-anchor:start;fill:url(#pattern4956);fill-opacity:1"
         id="flowPara4967">    ...and you died</flowPara></flowRoot>  </g>
</svg>
